<svg width="100" height="100" viewBox="0 0 100 100" fill="none" xmlns="http://www.w3.org/2000/svg">
<rect width="100" height="100" fill="black"/>
<path d="M19 28.816V82.2638H26.7645V43.5611H27.2663L43.218 82.1856H49.662L65.6137 43.5872H66.1154V82.2638H73.88V28.816H63.9762L46.7569 70.3633H46.1231L28.9038 28.816H19Z" fill="white"/>
<path d="M73.88 28.816L76.0632 28.816V21.8566H80.0071C80.1656 21.8566 80.3152 21.8566 80.4649 21.8479L84.2679 28.816H86.8033L82.7273 21.4565C85.025 20.6822 86.099 18.8293 86.099 16.4631C86.099 13.314 84.1975 11 79.9719 11H73.88V28.816ZM76.0632 19.908V12.9139H79.9015C82.8242 12.9139 83.951 14.3231 83.951 16.4631C83.951 18.6031 82.8242 19.908 79.9367 19.908H76.0632Z" fill="white"/>
</svg>
